PathFileType	4	(X/Y/Z)	OpenSim_Sub04_CSStiffKnee_Magnet.trc
DataRate	CameraRate	NumFrames	NumMarkers	Units	OrigDataRate	OrigDataStartFrame	OrigNumFrames
100	100	33	8	m	100	4634	7413
Frame#	Time	torso_imu_offset_imu	pelvis_imu_offset_imu	tibia_r_imu_offset_imu	femur_r_imu_offset_imu	tibia_l_imu_offset_imu	femur_l_imu_offset_imu	toes_r_imu_offset_imu	toes_l_imu_offset_imu
				X1	Y1	Z1	X2	Y2	Z2	X3	Y3	Z3	X4	Y4	Z4	X5	Y5	Z5	X6	Y6	Z6	X7	Y7	Z7	X8		Y8	Z8	

4634	46.33000000	0.92903666	0.24003661	-0.14672722	-0.56170782	0.12379872	-0.76103681	-0.41041010	-0.72195243	-0.17041251	-0.75082855	-0.39669235	0.02655227	-0.67306533	0.44764463	0.22521456	-0.38629433	0.15710670	0.53818051	-0.77696369	-0.40673352	-0.34633254	-0.67676323	-0.35293880	-0.37029905
4635	46.34000000	0.93004229	0.24194032	-0.14620608	-0.56627678	0.12422592	-0.75054134	-0.40147541	-0.72486398	-0.18161451	-0.74464041	-0.39742597	0.02113693	-0.67254315	0.44433629	0.23242795	-0.38884911	0.15634306	0.54436161	-0.77945142	-0.41281649	-0.33957698	-0.68029396	-0.35595297	-0.37019998
4636	46.35000000	0.93211504	0.23644873	-0.14396598	-0.56945026	0.12819086	-0.74838150	-0.39713856	-0.73149103	-0.18397615	-0.74422358	-0.39971970	0.02244681	-0.67921249	0.44212636	0.22804663	-0.39273158	0.15429380	0.54110893	-0.77941011	-0.41576884	-0.32695457	-0.68843493	-0.35575013	-0.36115055
4637	46.36000000	0.92731983	0.23940742	-0.14834787	-0.56864098	0.13138945	-0.74537073	-0.38519930	-0.73537590	-0.18332934	-0.74401785	-0.40219526	0.01921092	-0.67661796	0.44367602	0.23840093	-0.39141674	0.14931422	0.53772418	-0.78186711	-0.41351402	-0.32242441	-0.69078435	-0.35094353	-0.35745781
4638	46.37000000	0.93221283	0.24311511	-0.14635438	-0.57086424	0.13247656	-0.74267654	-0.36637571	-0.74317400	-0.18458625	-0.74084938	-0.40148076	0.01097625	-0.66814181	0.44745612	0.25147422	-0.39125507	0.14421216	0.53839622	-0.78930336	-0.41457153	-0.31054952	-0.69336023	-0.33297688	-0.35904787
4639	46.38000000	0.93275005	0.24037910	-0.14869485	-0.57948737	0.13896360	-0.73833295	-0.35568800	-0.74785406	-0.18439699	-0.74353446	-0.40055078	0.00937404	-0.65709795	0.45140596	0.26199845	-0.39460939	0.13756495	0.53872364	-0.79333952	-0.42294306	-0.29360435	-0.70040597	-0.32374525	-0.36511861
4640	46.39000000	0.92569565	0.24091778	-0.15199320	-0.58212553	0.14524469	-0.73651420	-0.34136892	-0.75658147	-0.19129545	-0.74278202	-0.39977655	0.01235897	-0.64977546	0.45947646	0.27514634	-0.39138253	0.12766313	0.53753055	-0.79934697	-0.42548119	-0.28323482	-0.70542470	-0.32935027	-0.36662663
4641	46.40000000	0.93292681	0.23423742	-0.15299837	-0.58657459	0.14915803	-0.72945045	-0.32338737	-0.76324212	-0.18789137	-0.75089332	-0.39525929	0.00682149	-0.63776823	0.47234114	0.28755795	-0.39135153	0.12367733	0.54500845	-0.80232838	-0.43045724	-0.26368661	-0.71016036	-0.31914916	-0.37255734
4642	46.41000000	0.93216632	0.23482186	-0.15199142	-0.58842749	0.16055030	-0.72171019	-0.30878092	-0.76787139	-0.18029428	-0.75364071	-0.38669343	0.00136373	-0.62499970	0.47593553	0.29391058	-0.38817624	0.11964987	0.55408073	-0.80854418	-0.43693140	-0.24132703	-0.71442876	-0.31862790	-0.36788795
4643	46.42000000	0.92839820	0.23902832	-0.15451034	-0.58852610	0.16844708	-0.71683866	-0.28946212	-0.77757838	-0.17523500	-0.75643270	-0.37431645	0.00463332	-0.62005155	0.47767872	0.29556980	-0.38321596	0.12000241	0.56277605	-0.81274082	-0.44225011	-0.21054681	-0.72058639	-0.31813435	-0.36992222
4644	46.43000000	0.92797094	0.23688059	-0.15443761	-0.58962090	0.17175596	-0.72033031	-0.27092548	-0.78263686	-0.17624559	-0.76138588	-0.36445298	-0.00006451	-0.61455463	0.48249087	0.30356630	-0.37237684	0.11774863	0.57537051	-0.80924996	-0.44664136	-0.17461335	-0.72570040	-0.31535637	-0.36361136
4645	46.44000000	0.92666141	0.24304249	-0.15739527	-0.59224003	0.17607302	-0.72244591	-0.25155846	-0.78908664	-0.17829673	-0.77308319	-0.35518392	-0.00349236	-0.61547472	0.47858598	0.30983454	-0.35604213	0.11965982	0.58192279	-0.81315622	-0.45611723	-0.13554278	-0.72401546	-0.31856131	-0.36080041
4646	46.45000000	0.92673180	0.23921362	-0.16296828	-0.59609264	0.18039617	-0.72024960	-0.23158274	-0.79728771	-0.16874142	-0.78190167	-0.33673843	-0.00544547	-0.61067366	0.48283701	0.31599789	-0.35129765	0.12754936	0.58788049	-0.81474088	-0.46807890	-0.09339982	-0.73367230	-0.32119422	-0.35716245
4647	46.46000000	0.92776360	0.23743998	-0.16042326	-0.59611491	0.18326789	-0.71279925	-0.21163588	-0.79988757	-0.16101549	-0.79041729	-0.31823090	-0.00625191	-0.60530143	0.48782448	0.31745983	-0.35468121	0.13228822	0.59903110	-0.81064779	-0.48668707	-0.04969727	-0.73966269	-0.32047922	-0.34687836
4648	46.47000000	0.92199770	0.24092255	-0.16464684	-0.59845030	0.18557369	-0.70925960	-0.19129540	-0.80571476	-0.15624841	-0.79714769	-0.30021011	-0.01274056	-0.60260062	0.49421168	0.32152804	-0.35187476	0.13635053	0.58976001	-0.80207079	-0.50014255	-0.00887650	-0.73991211	-0.32034667	-0.34121253
4649	46.48000000	0.92434517	0.23812237	-0.16531016	-0.59616715	0.18510082	-0.70790791	-0.17350272	-0.81327140	-0.14545803	-0.80719635	-0.27698327	-0.02096195	-0.59820133	0.49858715	0.32404062	-0.35220781	0.13285258	0.59102743	-0.78441809	-0.50894584	0.03427028	-0.74083141	-0.32512060	-0.33347223
4650	46.49000000	0.92526777	0.24069066	-0.16007029	-0.59525500	0.18337408	-0.70997715	-0.14925976	-0.81988323	-0.13764683	-0.81612652	-0.25885644	-0.02577894	-0.59186637	0.50570491	0.32575236	-0.34843838	0.13622647	0.58889395	-0.76751213	-0.52443712	0.07199558	-0.74205687	-0.32629467	-0.33010098
4651	46.50000000	0.92054534	0.24129988	-0.16491492	-0.59677623	0.18691625	-0.71203774	-0.13019887	-0.82313994	-0.12550336	-0.81955649	-0.23775155	-0.03068365	-0.58934854	0.50634374	0.32981876	-0.34778725	0.14526711	0.59099078	-0.75247632	-0.53988905	0.10647346	-0.74286997	-0.32886478	-0.32482875
4652	46.51000000	0.92137345	0.23939345	-0.16520039	-0.59697235	0.18728758	-0.71437486	-0.11531276	-0.82691061	-0.12010565	-0.82781364	-0.21167674	-0.03967301	-0.57888943	0.50537029	0.33838211	-0.34453918	0.15004568	0.59961410	-0.74024666	-0.55161247	0.13889716	-0.74431720	-0.33242344	-0.31128718
4653	46.52000000	0.92455881	0.24215633	-0.16025694	-0.59444942	0.18506275	-0.70944118	-0.09829131	-0.82682990	-0.11823952	-0.83460463	-0.18914616	-0.04614700	-0.57341844	0.51362016	0.33894189	-0.33491611	0.16348158	0.59696205	-0.73003424	-0.55142338	0.14786625	-0.74490380	-0.33491731	-0.30423764
4654	46.53000000	0.92168079	0.24797161	-0.16390892	-0.58920689	0.18118170	-0.71138933	-0.09090985	-0.82794207	-0.11590598	-0.83755895	-0.17234811	-0.04688969	-0.57209082	0.52220636	0.34365260	-0.33629942	0.17238698	0.59771710	-0.72200408	-0.54691440	0.15253147	-0.74626225	-0.33483835	-0.30388706
4655	46.54000000	0.92127957	0.24534604	-0.16309238	-0.58756377	0.18099279	-0.72178315	-0.08501895	-0.82392158	-0.12615949	-0.84027579	-0.15899886	-0.04813990	-0.56872946	0.52286821	0.34581361	-0.32943906	0.17643486	0.59798958	-0.72663892	-0.53916095	0.15862058	-0.74682336	-0.33970654	-0.28669664
4656	46.55000000	0.92205346	0.24780908	-0.15870883	-0.58769048	0.18228001	-0.72269098	-0.08617551	-0.82400532	-0.13801431	-0.84142622	-0.14039859	-0.05365494	-0.56466588	0.53037952	0.34698852	-0.32632856	0.17764318	0.59261285	-0.73492550	-0.52998460	0.15526503	-0.74788240	-0.34175869	-0.27989881
4657	46.56000000	0.92496583	0.25048201	-0.15997651	-0.57959588	0.18294242	-0.71922784	-0.10333857	-0.82454142	-0.14356019	-0.84251312	-0.12071773	-0.05457576	-0.55534600	0.53558543	0.35575107	-0.32477580	0.18241502	0.59513467	-0.74110801	-0.52107082	0.14394099	-0.74066753	-0.34650670	-0.28027285
4658	46.57000000	0.91662220	0.25541899	-0.16134032	-0.58018540	0.18635467	-0.71984794	-0.12666082	-0.81750042	-0.13763578	-0.84848976	-0.10961607	-0.06433678	-0.55126699	0.53511092	0.35485975	-0.31699051	0.19145433	0.60159002	-0.75527880	-0.51065186	0.13254442	-0.74020702	-0.34671519	-0.27382005
4659	46.58000000	0.91828236	0.26131482	-0.16153818	-0.58587934	0.19126443	-0.72382521	-0.14847299	-0.81491957	-0.12468798	-0.85161864	-0.09386836	-0.07293483	-0.54608943	0.54181932	0.35140806	-0.31303998	0.19314077	0.60456989	-0.76316036	-0.50046766	0.11056385	-0.73999242	-0.35233183	-0.27312657
4660	46.59000000	0.91902345	0.26008916	-0.16026318	-0.57731096	0.19328981	-0.72070986	-0.16939712	-0.80872894	-0.11862615	-0.85138206	-0.07794161	-0.07410846	-0.54354470	0.54278609	0.35562146	-0.31290475	0.19598863	0.61491544	-0.77201067	-0.48927142	0.08441342	-0.73672743	-0.35164742	-0.25938284
4661	46.60000000	0.91491384	0.25799269	-0.15762107	-0.58120068	0.19916216	-0.72150057	-0.19169329	-0.80309740	-0.11140454	-0.85289052	-0.06751113	-0.07880055	-0.54098869	0.55035208	0.36393918	-0.30231124	0.19740843	0.61788318	-0.78401900	-0.46703381	0.05294289	-0.73995191	-0.35140198	-0.25109605
4662	46.61000000	0.92426097	0.26364988	-0.15689443	-0.57947647	0.19888262	-0.72632388	-0.22479973	-0.79535572	-0.09747936	-0.85596907	-0.05804546	-0.08282658	-0.53087073	0.55449583	0.36108851	-0.29599968	0.20143716	0.62524785	-0.79772546	-0.44932955	0.01637890	-0.73541198	-0.36056604	-0.25348956
4663	46.62000000	0.92107722	0.26212254	-0.15683389	-0.57550257	0.20642454	-0.72482353	-0.25595272	-0.78537195	-0.09913942	-0.85511131	-0.05188493	-0.08290027	-0.52896208	0.56036266	0.35758026	-0.29014777	0.20702962	0.62024082	-0.80864771	-0.42964447	-0.02018748	-0.73186479	-0.36098042	-0.25005967
4664	46.63000000	0.91932695	0.25785179	-0.15760929	-0.57197201	0.21237794	-0.72725880	-0.28557716	-0.77804298	-0.09198198	-0.85589298	-0.04268791	-0.08687686	-0.52219475	0.56199554	0.35579478	-0.28658379	0.21267284	0.62072008	-0.81168306	-0.40427245	-0.05929334	-0.72410428	-0.35987768	-0.24544315
4665	46.64000000	0.92280537	0.26154911	-0.15240867	-0.56946960	0.21308598	-0.72989991	-0.32397814	-0.76608022	-0.08964575	-0.85639171	-0.03467072	-0.08775601	-0.51400988	0.56627439	0.35906353	-0.28514617	0.21811634	0.63408737	-0.81589132	-0.37727059	-0.10121200	-0.72579187	-0.35835296	-0.24111810
4666	46.65000000	0.92001413	0.25635405	-0.15173705	-0.56647970	0.21159463	-0.72780542	-0.35496974	-0.74988369	-0.08973131	-0.85288136	-0.02790894	-0.08598641	-0.51170450	0.57150082	0.36273746	-0.27894825	0.22253498	0.63653950	-0.81050100	-0.34839258	-0.14041516	-0.72467286	-0.35873506	-0.24612635
